<svg width="242" height="50" viewBox="0 0 242 50" fill="none" xmlns="http://www.w3.org/2000/svg">
<g clip-path="url(#clip0_21_28)">
<path d="M23.75 10H6.25C2.8 10 0 12.8 0 16.25V33.75C0 37.2 2.8 40 6.25 40H23.75C27.2 40 30 37.2 30 33.75V16.25C30 12.8 27.2 10 23.75 10ZM27.5 33.75C27.5 35.8125 25.8125 37.5 23.75 37.5H6.25C4.1875 37.5 2.5 35.8125 2.5 33.75V16.25C2.5 14.1875 4.1875 12.5 6.25 12.5H23.75C25.8125 12.5 27.5 14.1875 27.5 16.25V33.75ZM6.25 22.5C6.25 21.8125 6.8125 21.25 7.5 21.25H18.75C19.4375 21.25 20 21.8125 20 22.5C20 23.1875 19.4375 23.75 18.75 23.75H7.5C6.8125 23.75 6.25 23.1875 6.25 22.5ZM6.25 17.5C6.25 16.8125 6.8125 16.25 7.5 16.25H15C15.6875 16.25 16.25 16.8125 16.25 17.5C16.25 18.1875 15.6875 18.75 15 18.75H7.5C6.8125 18.75 6.25 18.1875 6.25 17.5ZM23.75 27.5C23.75 28.1875 23.1875 28.75 22.5 28.75H7.5C6.8125 28.75 6.25 28.1875 6.25 27.5C6.25 26.8125 6.8125 26.25 7.5 26.25H22.5C23.1875 26.25 23.75 26.8125 23.75 27.5ZM12.5 32.5C12.5 33.1875 11.9375 33.75 11.25 33.75H7.5C6.8125 33.75 6.25 33.1875 6.25 32.5C6.25 31.8125 6.8125 31.25 7.5 31.25H11.25C11.9375 31.25 12.5 31.8125 12.5 32.5Z" fill="#F1F0F1"/>
</g>
<path d="M60.0001 33.25C59.2667 33.25 58.5334 33.1917 57.8001 33.075C57.0667 32.975 56.3751 32.8167 55.7251 32.6C55.0751 32.3667 54.4917 32.0833 53.9751 31.75C53.6751 31.55 53.4667 31.3083 53.3501 31.025C53.2334 30.7417 53.1917 30.4667 53.2251 30.2C53.2751 29.9167 53.3834 29.675 53.5501 29.475C53.7334 29.2583 53.9584 29.125 54.2251 29.075C54.4917 29.025 54.7834 29.1 55.1001 29.3C55.8334 29.7333 56.6084 30.05 57.4251 30.25C58.2417 30.45 59.1001 30.55 60.0001 30.55C61.3167 30.55 62.2751 30.3333 62.8751 29.9C63.4751 29.45 63.7751 28.875 63.7751 28.175C63.7751 27.5917 63.5584 27.1333 63.1251 26.8C62.7084 26.4667 61.9834 26.1917 60.9501 25.975L58.2001 25.4C56.6167 25.0667 55.4334 24.5083 54.6501 23.725C53.8834 22.925 53.5001 21.875 53.5001 20.575C53.5001 19.7583 53.6667 19.0167 54.0001 18.35C54.3334 17.6833 54.8001 17.1083 55.4001 16.625C56.0167 16.1417 56.7417 15.775 57.5751 15.525C58.4251 15.2583 59.3584 15.125 60.3751 15.125C61.3751 15.125 62.3251 15.25 63.2251 15.5C64.1251 15.75 64.9334 16.1167 65.6501 16.6C65.9167 16.7833 66.0917 17.0083 66.1751 17.275C66.2751 17.5417 66.3001 17.8083 66.2501 18.075C66.2001 18.325 66.0834 18.5417 65.9001 18.725C65.7167 18.9083 65.4834 19.0167 65.2001 19.05C64.9334 19.0833 64.6251 19 64.2751 18.8C63.6584 18.45 63.0334 18.2 62.4001 18.05C61.7667 17.9 61.0834 17.825 60.3501 17.825C59.5834 17.825 58.9251 17.9333 58.3751 18.15C57.8251 18.3667 57.4001 18.675 57.1001 19.075C56.8167 19.4583 56.6751 19.9167 56.6751 20.45C56.6751 21.05 56.8751 21.5333 57.2751 21.9C57.6751 22.25 58.3584 22.525 59.3251 22.725L62.0501 23.3C63.7001 23.65 64.9251 24.2 65.7251 24.95C66.5417 25.7 66.9501 26.7 66.9501 27.95C66.9501 28.75 66.7834 29.475 66.4501 30.125C66.1334 30.775 65.6667 31.3333 65.0501 31.8C64.4501 32.2667 63.7251 32.625 62.8751 32.875C62.0251 33.125 61.0667 33.25 60.0001 33.25ZM70.9465 33.175C70.4465 33.175 70.0632 33.025 69.7965 32.725C69.5299 32.425 69.3965 32.0083 69.3965 31.475V22.3C69.3965 21.75 69.5299 21.3333 69.7965 21.05C70.0632 20.75 70.4465 20.6 70.9465 20.6C71.4465 20.6 71.8299 20.75 72.0965 21.05C72.3799 21.3333 72.5215 21.75 72.5215 22.3V31.475C72.5215 32.0083 72.3882 32.425 72.1215 32.725C71.8549 33.025 71.4632 33.175 70.9465 33.175ZM70.9465 18.275C70.3632 18.275 69.9049 18.1333 69.5715 17.85C69.2549 17.55 69.0965 17.1417 69.0965 16.625C69.0965 16.0917 69.2549 15.6833 69.5715 15.4C69.9049 15.1167 70.3632 14.975 70.9465 14.975C71.5465 14.975 72.0049 15.1167 72.3215 15.4C72.6382 15.6833 72.7965 16.0917 72.7965 16.625C72.7965 17.1417 72.6382 17.55 72.3215 17.85C72.0049 18.1333 71.5465 18.275 70.9465 18.275ZM77.3686 33.2C76.8686 33.2 76.4853 33.0667 76.2186 32.8C75.9519 32.5167 75.8186 32.1167 75.8186 31.6V22.15C75.8186 21.6333 75.9519 21.2417 76.2186 20.975C76.4853 20.7083 76.8603 20.575 77.3436 20.575C77.8269 20.575 78.2019 20.7083 78.4686 20.975C78.7353 21.2417 78.8686 21.6333 78.8686 22.15V23.975L78.5936 23.225C78.9269 22.3917 79.4436 21.7333 80.1436 21.25C80.8436 20.7667 81.6769 20.525 82.6436 20.525C83.6269 20.525 84.4353 20.7583 85.0686 21.225C85.7019 21.6917 86.1436 22.4083 86.3936 23.375H86.0436C86.3769 22.4917 86.9269 21.8 87.6936 21.3C88.4603 20.7833 89.3436 20.525 90.3436 20.525C91.277 20.525 92.0436 20.7083 92.6436 21.075C93.2603 21.4417 93.7186 22 94.0186 22.75C94.3186 23.4833 94.4686 24.4167 94.4686 25.55V31.6C94.4686 32.1167 94.3269 32.5167 94.0436 32.8C93.777 33.0667 93.3936 33.2 92.8936 33.2C92.3936 33.2 92.0103 33.0667 91.7436 32.8C91.4769 32.5167 91.3436 32.1167 91.3436 31.6V25.675C91.3436 24.7417 91.1853 24.0583 90.8686 23.625C90.5686 23.1917 90.0519 22.975 89.3186 22.975C88.5019 22.975 87.8603 23.2667 87.3936 23.85C86.9269 24.4167 86.6936 25.2083 86.6936 26.225V31.6C86.6936 32.1167 86.5603 32.5167 86.2936 32.8C86.0269 33.0667 85.6436 33.2 85.1436 33.2C84.6436 33.2 84.2519 33.0667 83.9686 32.8C83.7019 32.5167 83.5686 32.1167 83.5686 31.6V25.675C83.5686 24.7417 83.4103 24.0583 83.0936 23.625C82.7936 23.1917 82.2853 22.975 81.5686 22.975C80.7519 22.975 80.1103 23.2667 79.6436 23.85C79.1769 24.4167 78.9436 25.2083 78.9436 26.225V31.6C78.9436 32.6667 78.4186 33.2 77.3686 33.2ZM99.2424 37.7C98.7424 37.7 98.3591 37.5667 98.0924 37.3C97.8258 37.0333 97.6924 36.6417 97.6924 36.125V22.15C97.6924 21.6333 97.8258 21.2417 98.0924 20.975C98.3591 20.7083 98.7341 20.575 99.2174 20.575C99.7174 20.575 100.101 20.7083 100.367 20.975C100.634 21.2417 100.767 21.6333 100.767 22.15V24.1L100.492 23.35C100.742 22.5 101.251 21.8167 102.017 21.3C102.801 20.7833 103.709 20.525 104.742 20.525C105.809 20.525 106.742 20.7833 107.542 21.3C108.359 21.8167 108.992 22.55 109.442 23.5C109.892 24.4333 110.117 25.5583 110.117 26.875C110.117 28.175 109.892 29.3083 109.442 30.275C108.992 31.225 108.367 31.9583 107.567 32.475C106.767 32.9917 105.826 33.25 104.742 33.25C103.726 33.25 102.834 33 102.067 32.5C101.301 31.9833 100.784 31.3167 100.517 30.5H100.817V36.125C100.817 36.6417 100.676 37.0333 100.392 37.3C100.126 37.5667 99.7424 37.7 99.2424 37.7ZM103.867 30.875C104.484 30.875 105.026 30.725 105.492 30.425C105.959 30.125 106.317 29.6833 106.567 29.1C106.834 28.5 106.967 27.7583 106.967 26.875C106.967 25.5417 106.684 24.55 106.117 23.9C105.551 23.2333 104.801 22.9 103.867 22.9C103.251 22.9 102.709 23.05 102.242 23.35C101.776 23.6333 101.409 24.075 101.142 24.675C100.892 25.2583 100.767 25.9917 100.767 26.875C100.767 28.1917 101.051 29.1917 101.617 29.875C102.184 30.5417 102.934 30.875 103.867 30.875ZM116.858 33.25C115.474 33.25 114.433 32.8583 113.733 32.075C113.033 31.275 112.683 30.1083 112.683 28.575V16.75C112.683 16.2333 112.816 15.8417 113.083 15.575C113.349 15.3083 113.733 15.175 114.233 15.175C114.733 15.175 115.116 15.3083 115.383 15.575C115.666 15.8417 115.808 16.2333 115.808 16.75V28.425C115.808 29.1917 115.966 29.7583 116.283 30.125C116.616 30.4917 117.083 30.675 117.683 30.675C117.816 30.675 117.941 30.675 118.058 30.675C118.174 30.6583 118.291 30.6417 118.408 30.625C118.641 30.5917 118.799 30.6583 118.883 30.825C118.966 30.975 119.008 31.2917 119.008 31.775C119.008 32.1917 118.924 32.5167 118.758 32.75C118.591 32.9833 118.316 33.125 117.933 33.175C117.766 33.1917 117.591 33.2083 117.408 33.225C117.224 33.2417 117.041 33.25 116.858 33.25ZM126.569 33.25C125.186 33.25 123.994 32.9917 122.994 32.475C121.994 31.9583 121.219 31.225 120.669 30.275C120.136 29.325 119.869 28.2 119.869 26.9C119.869 25.6333 120.127 24.525 120.644 23.575C121.177 22.625 121.902 21.8833 122.819 21.35C123.752 20.8 124.811 20.525 125.994 20.525C126.861 20.525 127.636 20.6667 128.319 20.95C129.019 21.2333 129.611 21.6417 130.094 22.175C130.594 22.7083 130.969 23.3583 131.219 24.125C131.486 24.875 131.619 25.725 131.619 26.675C131.619 26.975 131.511 27.2083 131.294 27.375C131.094 27.525 130.802 27.6 130.419 27.6H122.394V25.8H129.419L129.019 26.175C129.019 25.4083 128.902 24.7667 128.669 24.25C128.452 23.7333 128.127 23.3417 127.694 23.075C127.277 22.7917 126.752 22.65 126.119 22.65C125.419 22.65 124.819 22.8167 124.319 23.15C123.836 23.4667 123.461 23.925 123.194 24.525C122.944 25.1083 122.819 25.8083 122.819 26.625V26.8C122.819 28.1667 123.136 29.1917 123.769 29.875C124.419 30.5417 125.369 30.875 126.619 30.875C127.052 30.875 127.536 30.825 128.069 30.725C128.619 30.6083 129.136 30.4167 129.619 30.15C129.969 29.95 130.277 29.8667 130.544 29.9C130.811 29.9167 131.019 30.0083 131.169 30.175C131.336 30.3417 131.436 30.55 131.469 30.8C131.502 31.0333 131.452 31.275 131.319 31.525C131.202 31.775 130.994 31.9917 130.694 32.175C130.111 32.5417 129.436 32.8167 128.669 33C127.919 33.1667 127.219 33.25 126.569 33.25Z" fill="#FFB30F"/>
<path d="M136.094 33C135.544 33 135.119 32.8583 134.819 32.575C134.535 32.275 134.394 31.85 134.394 31.3V17.075C134.394 16.525 134.535 16.1083 134.819 15.825C135.119 15.525 135.544 15.375 136.094 15.375H140.944C143.894 15.375 146.169 16.1333 147.769 17.65C149.385 19.1667 150.194 21.3417 150.194 24.175C150.194 25.5917 149.985 26.85 149.569 27.95C149.169 29.0333 148.569 29.95 147.769 30.7C146.985 31.45 146.019 32.025 144.869 32.425C143.735 32.8083 142.427 33 140.944 33H136.094ZM137.594 30.35H140.744C141.777 30.35 142.669 30.225 143.419 29.975C144.185 29.7083 144.819 29.325 145.319 28.825C145.835 28.3083 146.219 27.6667 146.469 26.9C146.719 26.1167 146.844 25.2083 146.844 24.175C146.844 22.1083 146.335 20.5667 145.319 19.55C144.302 18.5333 142.777 18.025 140.744 18.025H137.594V30.35ZM158.712 33.25C157.445 33.25 156.345 32.9917 155.412 32.475C154.478 31.9583 153.753 31.225 153.237 30.275C152.72 29.3083 152.462 28.175 152.462 26.875C152.462 25.8917 152.603 25.0167 152.887 24.25C153.187 23.4667 153.612 22.8 154.162 22.25C154.712 21.6833 155.37 21.2583 156.137 20.975C156.903 20.675 157.762 20.525 158.712 20.525C159.978 20.525 161.078 20.7833 162.012 21.3C162.945 21.8167 163.67 22.55 164.187 23.5C164.703 24.45 164.962 25.575 164.962 26.875C164.962 27.8583 164.812 28.7417 164.512 29.525C164.228 30.3083 163.812 30.9833 163.262 31.55C162.712 32.1 162.053 32.525 161.287 32.825C160.52 33.1083 159.662 33.25 158.712 33.25ZM158.712 30.875C159.328 30.875 159.87 30.725 160.337 30.425C160.803 30.125 161.162 29.6833 161.412 29.1C161.678 28.5 161.812 27.7583 161.812 26.875C161.812 25.5417 161.528 24.55 160.962 23.9C160.395 23.2333 159.645 22.9 158.712 22.9C158.095 22.9 157.553 23.05 157.087 23.35C156.62 23.6333 156.253 24.075 155.987 24.675C155.737 25.2583 155.612 25.9917 155.612 26.875C155.612 28.1917 155.895 29.1917 156.462 29.875C157.028 30.5417 157.778 30.875 158.712 30.875ZM173.191 33.25C171.908 33.25 170.791 32.9917 169.841 32.475C168.891 31.9417 168.158 31.1917 167.641 30.225C167.124 29.2583 166.866 28.125 166.866 26.825C166.866 25.8417 167.008 24.9667 167.291 24.2C167.591 23.4167 168.016 22.7583 168.566 22.225C169.116 21.675 169.783 21.2583 170.566 20.975C171.349 20.675 172.224 20.525 173.191 20.525C173.741 20.525 174.333 20.6 174.966 20.75C175.616 20.9 176.224 21.15 176.791 21.5C177.058 21.6667 177.233 21.8667 177.316 22.1C177.399 22.3333 177.416 22.575 177.366 22.825C177.316 23.0583 177.208 23.2667 177.041 23.45C176.891 23.6167 176.699 23.725 176.466 23.775C176.233 23.8083 175.974 23.75 175.691 23.6C175.324 23.3833 174.949 23.225 174.566 23.125C174.183 23.0083 173.816 22.95 173.466 22.95C172.916 22.95 172.433 23.0417 172.016 23.225C171.599 23.3917 171.241 23.6417 170.941 23.975C170.658 24.2917 170.441 24.6917 170.291 25.175C170.141 25.6583 170.066 26.2167 170.066 26.85C170.066 28.0833 170.358 29.0583 170.941 29.775C171.541 30.475 172.383 30.825 173.466 30.825C173.816 30.825 174.174 30.775 174.541 30.675C174.924 30.575 175.308 30.4167 175.691 30.2C175.974 30.05 176.224 30 176.441 30.05C176.674 30.1 176.866 30.2167 177.016 30.4C177.166 30.5667 177.258 30.775 177.291 31.025C177.324 31.2583 177.291 31.4917 177.191 31.725C177.108 31.9583 176.941 32.15 176.691 32.3C176.141 32.6333 175.558 32.875 174.941 33.025C174.324 33.175 173.741 33.25 173.191 33.25Z" fill="white"/>
<defs>
<clipPath id="clip0_21_28">
<rect width="30" height="30" fill="white" transform="translate(0 10)"/>
</clipPath>
</defs>
</svg>
