<svg id="Layer_1" data-name="Layer 1" xmlns="http://www.w3.org/2000/svg" viewBox="0 0 437.96 210.54"><defs><style>.cls-1{fill:#191d20;}.cls-2{fill:#d45e2c;}</style></defs><title>logo</title><path class="cls-1" d="M887.47,610.55a9,9,0,0,1-3.5-3.38,9.9,9.9,0,0,1,0-9.7,9,9,0,0,1,3.51-3.38,10.28,10.28,0,0,1,5-1.22,10.57,10.57,0,0,1,4,.72,8.1,8.1,0,0,1,3.06,2.15l-1.71,1.67a6.9,6.9,0,0,0-5.21-2.19,7.49,7.49,0,0,0-3.72.92,6.71,6.71,0,0,0-2.6,2.55,7.48,7.48,0,0,0,0,7.26,6.71,6.71,0,0,0,2.6,2.55,7.49,7.49,0,0,0,3.72.92,6.91,6.91,0,0,0,5.21-2.21l1.71,1.66a8.3,8.3,0,0,1-3.07,2.17,10.48,10.48,0,0,1-4,.74A10.15,10.15,0,0,1,887.47,610.55Z" transform="translate(-787.53 -401.24)"/><path class="cls-1" d="M915.45,610.55a9.09,9.09,0,0,1-3.53-3.4,9.75,9.75,0,0,1,0-9.66,9.09,9.09,0,0,1,3.53-3.4,11,11,0,0,1,10.06,0,9.08,9.08,0,0,1,3.52,3.38,10,10,0,0,1,0,9.7,9.08,9.08,0,0,1-3.52,3.38,10.9,10.9,0,0,1-10.06,0Zm8.7-2a6.74,6.74,0,0,0,2.56-2.55,7.48,7.48,0,0,0,0-7.26,6.74,6.74,0,0,0-2.56-2.55,7.21,7.21,0,0,0-3.66-.92,7.37,7.37,0,0,0-3.68.92,6.82,6.82,0,0,0-2.59,2.55,7.48,7.48,0,0,0,0,7.26,6.82,6.82,0,0,0,2.59,2.55,7.37,7.37,0,0,0,3.68.92A7.21,7.21,0,0,0,924.15,608.5Z" transform="translate(-787.53 -401.24)"/><path class="cls-1" d="M959.48,593.08v18.48h-2.17l-11.09-13.78v13.78h-2.64V593.08h2.16l11.09,13.78V593.08Z" transform="translate(-787.53 -401.24)"/><path class="cls-1" d="M975.63,611.13a8.16,8.16,0,0,1-3-1.68l1-2.06a8.31,8.31,0,0,0,2.71,1.55,10.08,10.08,0,0,0,3.39.59,6.12,6.12,0,0,0,3.44-.78,2.41,2.41,0,0,0,1.13-2.07,2,2,0,0,0-.62-1.55,4.15,4.15,0,0,0-1.53-.91c-.61-.21-1.47-.45-2.57-.71a27.71,27.71,0,0,1-3.37-1,5.49,5.49,0,0,1-2.19-1.55,4.1,4.1,0,0,1-.92-2.81,4.75,4.75,0,0,1,.78-2.67,5.33,5.33,0,0,1,2.37-1.9,9.49,9.49,0,0,1,3.93-.71,12.48,12.48,0,0,1,3.22.42A8.38,8.38,0,0,1,986,594.5l-.87,2.12a9.51,9.51,0,0,0-5.07-1.51,5.7,5.7,0,0,0-3.37.82,2.52,2.52,0,0,0-1.12,2.11,2,2,0,0,0,.64,1.55,4.41,4.41,0,0,0,1.57.92,24.71,24.71,0,0,0,2.55.7,27.25,27.25,0,0,1,3.35,1,5.68,5.68,0,0,1,2.18,1.54,4,4,0,0,1,.91,2.77,4.68,4.68,0,0,1-.79,2.65,5.31,5.31,0,0,1-2.4,1.91,10.11,10.11,0,0,1-4,.7A12.63,12.63,0,0,1,975.63,611.13Z" transform="translate(-787.53 -401.24)"/><path class="cls-1" d="M1001.81,609.66a8.36,8.36,0,0,1-2.06-6.07V593.08h2.64v10.4q0,5.94,5.21,5.94a5,5,0,0,0,3.88-1.46,6.43,6.43,0,0,0,1.34-4.48v-10.4h2.57v10.51a8.36,8.36,0,0,1-2.06,6.09,8.92,8.92,0,0,1-11.52,0Z" transform="translate(-787.53 -401.24)"/><path class="cls-1" d="M1030.05,593.08h2.64v16.19h10v2.29h-12.65Z" transform="translate(-787.53 -401.24)"/><path class="cls-1" d="M1056.93,595.37h-6.34v-2.29h15.29v2.29h-6.33v16.19h-2.62Z" transform="translate(-787.53 -401.24)"/><path class="cls-1" d="M1081,610.55a9.06,9.06,0,0,1-3.52-3.4,9.75,9.75,0,0,1,0-9.66,9.06,9.06,0,0,1,3.52-3.4,11,11,0,0,1,10.07,0,9.13,9.13,0,0,1,3.51,3.38,9.9,9.9,0,0,1,0,9.7,9.13,9.13,0,0,1-3.51,3.38,10.92,10.92,0,0,1-10.07,0Zm8.71-2a6.88,6.88,0,0,0,2.56-2.55,7.48,7.48,0,0,0,0-7.26,6.88,6.88,0,0,0-2.56-2.55,7.26,7.26,0,0,0-3.66-.92,7.38,7.38,0,0,0-3.69.92,6.72,6.72,0,0,0-2.58,2.55,7.48,7.48,0,0,0,0,7.26,6.72,6.72,0,0,0,2.58,2.55,7.38,7.38,0,0,0,3.69.92A7.26,7.26,0,0,0,1089.75,608.5Z" transform="translate(-787.53 -401.24)"/><path class="cls-1" d="M1121.53,611.56l-4-5.67c-.49,0-.88.05-1.16.05h-4.57v5.62h-2.64V593.08h7.21a8.58,8.58,0,0,1,5.65,1.71,5.81,5.81,0,0,1,2.06,4.73,6.23,6.23,0,0,1-1,3.65,6,6,0,0,1-3,2.19l4.38,6.2Zm-1.4-8.95a4.27,4.27,0,0,0,0-6.17,6,6,0,0,0-3.83-1.07h-4.49v8.32h4.49A5.93,5.93,0,0,0,1120.13,602.61Z" transform="translate(-787.53 -401.24)"/><path class="cls-1" d="M1149.39,606.94h-9.82l-2,4.62h-2.72l8.37-18.48h2.61l8.4,18.48h-2.77Zm-.92-2.11-4-9.06-4,9.06Z" transform="translate(-787.53 -401.24)"/><rect class="cls-1" x="95.55" y="1.21" width="17.45" height="81.42"/><polygon class="cls-1" points="143.69 27.22 182.35 82.63 199.92 82.63 199.92 1.21 183.17 1.21 183.17 57.79 143.69 1.21 126.7 1.21 126.7 82.63 143.69 82.63 143.69 27.22"/><path class="cls-1" d="M1067.27,474.11v10.77h11.91v-43H1037v11.95h23.5A22.64,22.64,0,0,1,1049.07,468a23.62,23.62,0,0,1-11.13,2.64,22.82,22.82,0,0,1-12.42-3.4,22.12,22.12,0,0,1-8.26-9.49,29.87,29.87,0,0,1-2.63-13.82,32.12,32.12,0,0,1,3.34-13.18,23,23,0,0,1,21-12.83,22.47,22.47,0,0,1,10.49,2.34,19.4,19.4,0,0,1,7,5.92,20,20,0,0,1,3.33,7.32h17a36.52,36.52,0,0,0-5.62-14.41,37,37,0,0,0-12.59-11.89,36.56,36.56,0,0,0-18.92-4.74,42.27,42.27,0,0,0-22.14,5.74,40.19,40.19,0,0,0-14.88,15.23,43.46,43.46,0,0,0-5.51,20.5,44.4,44.4,0,0,0,4.69,21.38,36.71,36.71,0,0,0,14.29,15.22,41.87,41.87,0,0,0,21.79,5.57,39.73,39.73,0,0,0,29.33-12Z" transform="translate(-787.53 -401.24)"/><path class="cls-1" d="M904.92,512.76a19.93,19.93,0,0,1,10.25-2.64,18.6,18.6,0,0,1,8.44,1.88,18.19,18.19,0,0,1,6.15,4.86,13.87,13.87,0,0,1,3,6.38h16a27.55,27.55,0,0,0-5.44-13.7,32.73,32.73,0,0,0-12-9.84,36.67,36.67,0,0,0-16.4-3.64,37.79,37.79,0,0,0-18.45,4.4A32.56,32.56,0,0,0,884,512.35a33.16,33.16,0,0,0-4.74,16.52,32.37,32.37,0,0,0,4.16,16.75,30.73,30.73,0,0,0,12.12,11.83,37.18,37.18,0,0,0,18.28,4.33,37.79,37.79,0,0,0,16.34-3.57,33.15,33.15,0,0,0,12.42-10,28.88,28.88,0,0,0,5.8-14.35H932.74a19.45,19.45,0,0,1-6.61,9.9,18.33,18.33,0,0,1-11.89,3.93,20.37,20.37,0,0,1-10.08-2.41,15.86,15.86,0,0,1-6.56-6.67,20.91,20.91,0,0,1-2.22-9.78,18.93,18.93,0,0,1,9.54-16.11Z" transform="translate(-787.53 -401.24)"/><path class="cls-1" d="M1012.52,500.4a39.52,39.52,0,0,0-18.74-4.34,39.05,39.05,0,0,0-18.45,4.34,33.39,33.39,0,0,0-13,11.83,31.29,31.29,0,0,0-4.86,16.64,32,32,0,0,0,4.74,16.57A33,33,0,0,0,975,557.39a38.32,38.32,0,0,0,18.39,4.39,38.87,38.87,0,0,0,18.57-4.39,33.29,33.29,0,0,0,13-11.95,31.66,31.66,0,0,0-12.42-45Zm-2.4,38.07a18.34,18.34,0,0,1-7,6.85,20.11,20.11,0,0,1-10.08,2.52,19.54,19.54,0,0,1-9.9-2.52,17.12,17.12,0,0,1-6.73-6.85,18.85,18.85,0,0,1-2.23-9.6,19.65,19.65,0,0,1,2.7-9.67,18.58,18.58,0,0,1,7-6.91A20,20,0,0,1,994,509.77a19.13,19.13,0,0,1,9.9,2.52,17.44,17.44,0,0,1,6.62,6.85,19.22,19.22,0,0,1,2.22,9.73A19.56,19.56,0,0,1,1010.12,538.47Z" transform="translate(-787.53 -401.24)"/><path class="cls-1" d="M1123.46,496.06a24.78,24.78,0,0,0-13.83,4.05,28.2,28.2,0,0,0-9.88,11.5,24.82,24.82,0,0,0-4.06-8.17q-5.73-7.38-16.75-7.38a25,25,0,0,0-13.94,4.05,27.35,27.35,0,0,0-8.2,8.44V498.29h-17.34v61.27h17.34V531.32q.24-10.07,4.74-15.75a14.32,14.32,0,0,1,11.78-5.68q5.63,0,8.2,4t2.57,11v34.68h17.34V531.32q.24-10.19,4.57-15.81a13.89,13.89,0,0,1,11.6-5.62c3.82,0,6.62,1.27,8.37,3.8s2.64,6.27,2.64,11.19v34.68h17.45V522.89q0-12.89-5.79-19.86T1123.46,496.06Z" transform="translate(-787.53 -401.24)"/><path class="cls-1" d="M1225.49,529a33,33,0,0,0-3.87-16.11,30.6,30.6,0,0,0-11.83-12.18q-7.85-4.62-18.86-4.63a37,37,0,0,0-18.16,4.46,33.37,33.37,0,0,0-12.65,11.94,31.75,31.75,0,0,0-4.68,16.41,31.42,31.42,0,0,0,4.15,17,30.46,30.46,0,0,0,12.48,11.72,40,40,0,0,0,18.74,4.21,42.57,42.57,0,0,0,17.69-3.69,34.51,34.51,0,0,0,13-9.66l-12.66-7.62a22,22,0,0,1-7.38,5.28,23.8,23.8,0,0,1-10.07,2.1q-8.09,0-13.3-3.74a13.18,13.18,0,0,1-5.68-10.2h52.37A22.9,22.9,0,0,0,1225.49,529Zm-52.83-5.15a18.59,18.59,0,0,1,6.67-10.49,19.27,19.27,0,0,1,12.19-3.92,18.61,18.61,0,0,1,9,2.05,15.7,15.7,0,0,1,5.91,5.33,13.57,13.57,0,0,1,2.23,7Z" transform="translate(-787.53 -401.24)"/><path class="cls-2" d="M787.53,542.81v68.75h51.93V490.87h0A51.94,51.94,0,0,0,787.53,542.81Z" transform="translate(-787.53 -401.24)"/><path class="cls-2" d="M839.46,401.24H787.53v89.63h0a51.93,51.93,0,0,0,51.93-51.93Z" transform="translate(-787.53 -401.24)"/></svg>