<!--?xml version="1.0" standalone="no"?-->
              <svg id="sw-js-blob-svg" viewBox="0 0 100 100" xmlns="http://www.w3.org/2000/svg" version="1.1">
                    <defs> 
                        <linearGradient id="sw-gradient" x1="0" x2="1" y1="1" y2="0">
                            <stop id="stop1" stop-color="rgba(248, 117, 55, 1)" offset="0%"></stop>
                            <stop id="stop2" stop-color="rgba(251, 168, 31, 1)" offset="100%"></stop>
                        </linearGradient>
                    </defs>
                <path fill="url(#sw-gradient)" d="M11.4,-19.5C16.5,-16.7,23.6,-17.3,27.3,-14.5C30.9,-11.8,30.9,-5.9,29.4,-0.9C27.9,4.1,24.7,8.3,20.7,10.3C16.7,12.3,11.8,12.2,8.2,17.8C4.6,23.3,2.3,34.7,-2.3,38.6C-6.9,42.5,-13.7,39.1,-19.8,35C-25.9,30.8,-31.3,26,-32.3,20.1C-33.3,14.1,-29.9,7.1,-26.3,2.1C-22.6,-2.8,-18.7,-5.7,-16.8,-10.1C-14.9,-14.5,-15.1,-20.4,-12.6,-24.7C-10.1,-29.1,-5.1,-31.8,-1,-30.1C3.1,-28.4,6.2,-22.3,11.4,-19.5Z" width="100%" height="100%" transform="translate(50 50)" stroke-width="0" style="transition: all 0.3s ease 0s;"></path>
              </svg>